# xmcd
#
# Track frame offsets:
#	150
#	20742
#	40991
#	66071
#	82727
#	99549
#	117084
#	127180
#	146006
#	166214
#	186817
#	211560
#	232048
#	247324
#	262281
#	279895
#	303065
#
# Disc length: 4271 seconds
#
# Revision: 0
# Processed by: cddbd v1.5.1PL2 Copyright (c) Steve Scherf et al.
# Submitted via: audiograbber 1.83.01
#
DISCID=ef10ad11
DTITLE=diverse Interpreten - 80tien CD 3
DYEAR=1900
DGENRE=
TTITLE0=Mike Oldfield
TTITLE1=Bonnie Tyler
TTITLE2=Spandau Ballet
TTITLE3=Righeira
TTITLE4=Absolutely Everybody
TTITLE5=Endgames
TTITLE6=Walkin Down the Street
TTITLE7=Take My Breath Away
TTITLE8=Moskau
TTITLE9=Fancy [Lady of Ice]
TTITLE10=The Power Of Love
TTITLE11=What is Love
TTITLE12=Harpo [Movie Star]
TTITLE13=Kung Fu Fighting
TTITLE14=99 Luftballons
TTITLE15=Terra Titanic
TTITLE16=Real Life [Send Me An Angel]
EXTD=
EXTT0=
EXTT1=
EXTT2=
EXTT3=
EXTT4=
EXTT5=
EXTT6=
EXTT7=
EXTT8=
EXTT9=
EXTT10=
EXTT11=
EXTT12=
EXTT13=
EXTT14=
EXTT15=
EXTT16=
PLAYORDER=
